<mxfile host="65bd71144e">
    <diagram id="gMjZbg1UGCFa8COhXZXy" name="journey">
        <mxGraphModel dx="224" dy="139" grid="1" gridSize="10" guides="1" tooltips="1" connect="1" arrows="1" fold="1" page="1" pageScale="1" pageWidth="850" pageHeight="1100" math="0" shadow="0">
            <root>
                <mxCell id="0"/>
                <mxCell id="1" parent="0"/>
                <mxCell id="2" value="" style="whiteSpace=wrap;html=1;aspect=fixed;" vertex="1" parent="1">
                    <mxGeometry x="120" y="130" width="80" height="80" as="geometry"/>
                </mxCell>
                <mxCell id="3" value="&lt;font style=&quot;font-size: 2px;&quot;&gt;Proof of Concept&lt;/font&gt;" style="text;html=1;strokeColor=none;fillColor=none;align=center;verticalAlign=middle;whiteSpace=wrap;rounded=0;" vertex="1" parent="1">
                    <mxGeometry x="140" y="130" width="30" height="10" as="geometry"/>
                </mxCell>
                <mxCell id="4" value="Add JSON structure -&amp;gt;&amp;nbsp; Program will ask user sequentially whether he has completed the steps&lt;br&gt;&lt;br&gt;Phase 1: Stateless&lt;br&gt;Phase 2: Stateful&lt;br&gt;Phase 3:&amp;nbsp; Chatbot" style="text;html=1;strokeColor=none;fillColor=none;align=center;verticalAlign=middle;whiteSpace=wrap;rounded=0;fontSize=2;" vertex="1" parent="1">
                    <mxGeometry x="125" y="140" width="60" height="30" as="geometry"/>
                </mxCell>
                <mxCell id="5" value="1. Journey" style="text;html=1;strokeColor=none;fillColor=none;align=center;verticalAlign=middle;whiteSpace=wrap;rounded=0;fontSize=9;" vertex="1" parent="1">
                    <mxGeometry x="100" y="110" width="60" height="30" as="geometry"/>
                </mxCell>
            </root>
        </mxGraphModel>
    </diagram>
</mxfile>